<?xml version="1.0" standalone="no"?>
<!DOCTYPE svg PUBLIC "-//W3C//DTD SVG 20010904//EN"
 "http://www.w3.org/TR/2001/REC-SVG-20010904/DTD/svg10.dtd">
<svg version="1.0" xmlns="http://www.w3.org/2000/svg"
 width="433.000000pt" height="433.000000pt" viewBox="0 0 433.000000 433.000000"
 preserveAspectRatio="xMidYMid meet">
<metadata>
Created by potrace 1.11, written by Peter Selinger 2001-2013
</metadata>
<g transform="translate(0.000000,433.000000) scale(0.100000,-0.100000)"
fill="#000000" stroke="none">
<path d="M1804 4313 c-17 -8 -43 -34 -58 -57 -24 -35 -27 -48 -23 -93 6 -57
35 -108 67 -118 11 -4 20 -10 20 -14 0 -5 -22 -42 -49 -82 -192 -291 -407
-309 -656 -53 -42 44 -48 67 -20 78 23 8 47 66 47 112 0 81 -55 142 -136 151
-98 11 -171 -55 -170 -154 0 -82 54 -141 135 -150 l44 -5 33 -142 c19 -77 35
-150 38 -161 2 -11 22 -94 43 -185 l38 -165 699 0 699 0 12 25 c6 14 14 39 17
55 3 17 15 62 26 100 12 39 23 78 25 88 5 22 83 300 96 343 9 28 15 32 55 38
59 8 102 39 125 90 24 53 24 80 -1 130 -26 54 -75 86 -132 88 -129 2 -205
-135 -134 -243 15 -21 32 -39 38 -39 27 0 -146 -146 -215 -182 -159 -84 -282
-67 -402 56 -48 50 -143 194 -133 201 71 45 98 87 98 150 0 111 -127 188 -226
138z"/>
<path d="M350 3176 c0 -57 0 -58 45 -56 15 1 66 -33 79 -52 14 -20 16 -173 16
-1456 l0 -1434 -28 -28 c-17 -17 -44 -30 -70 -35 l-42 -7 0 -54 0 -55 1133 4
c622 2 1143 6 1157 10 14 4 43 9 65 12 76 10 245 55 342 91 433 160 735 505
857 979 15 60 17 71 31 155 4 25 9 52 10 60 7 37 18 222 18 300 0 81 -11 273
-18 309 -1 9 -6 36 -9 61 -25 164 -86 351 -159 490 -32 60 -106 182 -116 190
-3 3 -24 27 -46 55 -141 176 -344 318 -574 401 -87 32 -213 68 -271 77 -14 3
-45 8 -70 12 -25 4 -54 10 -65 13 -11 3 -530 8 -1152 9 l-1133 4 0 -55z m2085
-490 c58 -9 146 -25 173 -31 12 -3 32 -7 44 -10 88 -19 215 -79 301 -142 134
-99 250 -311 283 -518 3 -22 8 -43 10 -46 22 -36 22 -601 -1 -639 -1 -3 -6
-25 -9 -50 -19 -143 -94 -317 -182 -424 -93 -112 -253 -209 -402 -241 -12 -3
-32 -7 -44 -10 -145 -34 -220 -38 -815 -42 l-603 -5 -1 59 c0 60 0 2050 1
2091 l0 23 603 -4 c331 -3 620 -8 642 -11z"/>
</g>
</svg>
